<svg xmlns="http://www.w3.org/2000/svg" xmlns:xlink="http://www.w3.org/1999/xlink" width="164pt" height="91pt" viewBox="0 0 164 91" version="1.1">
  <g id="surface1">
    <path style=" stroke:none;fill-rule:nonzero;fill:rgb(54.117647%,14.117647%,19.607843%);fill-opacity:1;" d="M 38.242188 68.992188 L 36.632812 68.992188 L 36.632812 66.871094 L 42.210938 66.871094 L 42.210938 68.992188 L 40.476562 68.992188 L 40.476562 79.453125 L 37.710938 79.453125 L 32.308594 70.183594 L 32.308594 77.246094 L 33.875 77.246094 L 33.875 79.367188 L 28.414062 79.367188 L 28.414062 77.246094 L 30.09375 77.246094 L 30.09375 68.992188 L 28.414062 68.992188 L 28.414062 66.871094 L 33.65625 66.871094 L 38.253906 74.683594 L 38.253906 68.992188 Z M 38.242188 68.992188 " />
    <path style=" stroke:none;fill-rule:nonzero;fill:rgb(54.117647%,14.117647%,19.607843%);fill-opacity:1;" d="M 40.664062 79.652344 L 37.59375 79.652344 L 32.507812 70.90625 L 32.507812 77.046875 L 34.074219 77.046875 L 34.074219 79.566406 L 28.203125 79.566406 L 28.203125 77.046875 L 29.886719 77.046875 L 29.886719 69.191406 L 28.203125 69.191406 L 28.203125 66.671875 L 33.75 66.671875 L 38.035156 73.960938 L 38.035156 69.191406 L 36.425781 69.191406 L 36.425781 66.671875 L 42.390625 66.671875 L 42.390625 69.191406 L 40.65625 69.191406 L 40.65625 79.652344 Z M 37.8125 79.253906 L 40.269531 79.253906 L 40.269531 68.792969 L 42.003906 68.792969 L 42.003906 67.066406 L 36.820312 67.066406 L 36.820312 68.792969 L 38.429688 68.792969 L 38.429688 75.40625 L 33.519531 67.066406 L 28.589844 67.066406 L 28.589844 68.792969 L 30.273438 68.792969 L 30.273438 77.433594 L 28.589844 77.433594 L 28.589844 79.160156 L 33.667969 79.160156 L 33.667969 77.433594 L 32.101562 77.433594 L 32.101562 69.453125 Z M 37.8125 79.253906 " />
    <path style=" stroke:none;fill-rule:nonzero;fill:rgb(54.117647%,14.117647%,19.607843%);fill-opacity:1;" d="M 67.59375 70.320312 C 67.59375 71.085938 67.417969 71.722656 67.0625 72.246094 C 66.707031 72.769531 66.164062 73.1875 65.441406 73.511719 L 67.460938 77.289062 L 68.523438 77.289062 L 68.523438 79.410156 L 65.265625 79.410156 L 62.445312 73.949219 L 61.023438 73.949219 L 61.023438 77.289062 L 62.589844 77.289062 L 62.589844 79.410156 L 56.605469 79.410156 L 56.605469 77.289062 L 57.777344 77.289062 L 57.777344 69.035156 L 56.605469 69.035156 L 56.605469 66.910156 L 63.175781 66.910156 C 64.554688 66.910156 65.640625 67.203125 66.414062 67.789062 C 67.199219 68.363281 67.59375 69.210938 67.59375 70.320312 Z M 64.199219 70.457031 C 64.199219 69.984375 64.042969 69.621094 63.742188 69.390625 C 63.4375 69.148438 63.019531 69.035156 62.496094 69.035156 L 61.023438 69.035156 L 61.023438 71.933594 L 62.214844 71.933594 C 63.542969 71.933594 64.199219 71.441406 64.199219 70.457031 Z M 64.199219 70.457031 " />
    <path style=" stroke:none;fill-rule:nonzero;fill:rgb(54.117647%,14.117647%,19.607843%);fill-opacity:1;" d="M 68.710938 79.609375 L 65.140625 79.609375 L 62.320312 74.148438 L 61.210938 74.148438 L 61.210938 77.097656 L 62.78125 77.097656 L 62.78125 79.621094 L 56.40625 79.621094 L 56.40625 77.089844 L 57.578125 77.089844 L 57.578125 69.234375 L 56.40625 69.234375 L 56.40625 66.710938 L 63.175781 66.710938 C 64.597656 66.710938 65.726562 67.015625 66.539062 67.621094 C 67.367188 68.238281 67.792969 69.148438 67.792969 70.3125 C 67.792969 71.117188 67.605469 71.796875 67.230469 72.351562 C 66.886719 72.851562 66.382812 73.269531 65.714844 73.59375 L 67.574219 77.078125 L 68.722656 77.078125 L 68.722656 79.609375 Z M 65.390625 79.210938 L 68.328125 79.210938 L 68.328125 77.484375 L 67.335938 77.484375 L 65.171875 73.425781 L 65.359375 73.34375 C 66.050781 73.03125 66.5625 72.632812 66.894531 72.140625 C 67.230469 71.660156 67.398438 71.042969 67.398438 70.332031 C 67.398438 69.285156 67.042969 68.5 66.300781 67.957031 C 65.558594 67.402344 64.503906 67.121094 63.175781 67.121094 L 56.792969 67.121094 L 56.792969 68.847656 L 57.964844 68.847656 L 57.964844 77.484375 L 56.792969 77.484375 L 56.792969 79.210938 L 62.394531 79.210938 L 62.394531 77.484375 L 60.828125 77.484375 L 60.828125 73.75 L 62.570312 73.75 Z M 62.214844 72.128906 L 60.828125 72.128906 L 60.828125 68.835938 L 62.496094 68.835938 C 63.0625 68.835938 63.519531 68.972656 63.855469 69.234375 C 64.210938 69.503906 64.386719 69.921875 64.386719 70.457031 C 64.398438 71.21875 64.011719 72.128906 62.214844 72.128906 Z M 61.222656 71.742188 L 62.214844 71.742188 C 63.8125 71.742188 64 71.011719 64 70.46875 C 64 70.050781 63.875 69.757812 63.625 69.558594 C 63.355469 69.347656 62.976562 69.242188 62.507812 69.242188 L 61.234375 69.242188 L 61.234375 71.742188 Z M 61.222656 71.742188 " />
    <path style=" stroke:none;fill-rule:nonzero;fill:rgb(54.117647%,14.117647%,19.607843%);fill-opacity:1;" d="M 78.25 70.84375 L 78.25 69.035156 L 76.308594 69.035156 L 76.308594 77.289062 L 77.078125 77.289062 L 77.078125 79.410156 L 72.273438 79.410156 L 72.273438 77.289062 L 73.078125 77.289062 L 73.078125 69.035156 L 71.179688 69.035156 L 71.179688 70.84375 L 69.058594 70.84375 L 69.058594 66.910156 L 80.347656 66.910156 L 80.347656 70.84375 Z M 78.25 70.84375 " />
    <path style=" stroke:none;fill-rule:nonzero;fill:rgb(54.117647%,14.117647%,19.607843%);fill-opacity:1;" d="M 77.277344 79.609375 L 72.078125 79.609375 L 72.078125 77.089844 L 72.878906 77.089844 L 72.878906 69.234375 L 71.375 69.234375 L 71.375 71.042969 L 68.859375 71.042969 L 68.859375 66.722656 L 80.546875 66.722656 L 80.546875 71.042969 L 78.050781 71.042969 L 78.050781 69.234375 L 76.503906 69.234375 L 76.503906 77.089844 L 77.277344 77.089844 Z M 72.464844 79.210938 L 76.882812 79.210938 L 76.882812 77.484375 L 76.109375 77.484375 L 76.109375 68.847656 L 78.4375 68.847656 L 78.4375 70.65625 L 80.152344 70.65625 L 80.152344 67.121094 L 69.257812 67.121094 L 69.257812 70.65625 L 70.980469 70.65625 L 70.980469 68.847656 L 73.265625 68.847656 L 73.265625 77.484375 L 72.464844 77.484375 Z M 72.464844 79.210938 " />
    <path style=" stroke:none;fill-rule:nonzero;fill:rgb(54.117647%,14.117647%,19.607843%);fill-opacity:1;" d="M 86.0625 69.035156 L 86.0625 71.742188 L 89.480469 71.742188 L 89.480469 69.035156 L 88.746094 69.035156 L 88.746094 66.910156 L 93.636719 66.910156 L 93.636719 69.035156 L 92.625 69.035156 L 92.625 77.289062 L 93.636719 77.289062 L 93.636719 79.410156 L 88.746094 79.410156 L 88.746094 77.289062 L 89.480469 77.289062 L 89.480469 73.886719 L 86.0625 73.886719 L 86.0625 77.289062 L 86.824219 77.289062 L 86.824219 79.410156 L 81.894531 79.410156 L 81.894531 77.289062 L 82.910156 77.289062 L 82.910156 69.035156 L 81.894531 69.035156 L 81.894531 66.910156 L 86.824219 66.910156 L 86.824219 69.035156 Z M 86.0625 69.035156 " />
    <path style=" stroke:none;fill-rule:nonzero;fill:rgb(54.117647%,14.117647%,19.607843%);fill-opacity:1;" d="M 93.835938 79.609375 L 88.550781 79.609375 L 88.550781 77.089844 L 89.28125 77.089844 L 89.28125 74.085938 L 86.261719 74.085938 L 86.261719 77.089844 L 87.023438 77.089844 L 87.023438 79.609375 L 81.707031 79.609375 L 81.707031 77.089844 L 82.722656 77.089844 L 82.722656 69.234375 L 81.707031 69.234375 L 81.707031 66.710938 L 87.023438 66.710938 L 87.023438 69.234375 L 86.261719 69.234375 L 86.261719 71.554688 L 89.28125 71.554688 L 89.28125 69.234375 L 88.550781 69.234375 L 88.550781 66.710938 L 93.835938 66.710938 L 93.835938 69.234375 L 92.820312 69.234375 L 92.820312 77.089844 L 93.835938 77.089844 Z M 88.945312 79.210938 L 93.449219 79.210938 L 93.449219 77.484375 L 92.433594 77.484375 L 92.433594 68.847656 L 93.449219 68.847656 L 93.449219 67.121094 L 88.945312 67.121094 L 88.945312 68.847656 L 89.675781 68.847656 L 89.675781 71.953125 L 85.863281 71.953125 L 85.863281 68.847656 L 86.628906 68.847656 L 86.628906 67.121094 L 82.09375 67.121094 L 82.09375 68.847656 L 83.105469 68.847656 L 83.105469 77.484375 L 82.09375 77.484375 L 82.09375 79.210938 L 86.628906 79.210938 L 86.628906 77.484375 L 85.863281 77.484375 L 85.863281 73.6875 L 89.667969 73.6875 L 89.667969 77.484375 L 88.9375 77.484375 L 88.9375 79.210938 Z M 88.945312 79.210938 " />
    <path style=" stroke:none;fill-rule:nonzero;fill:rgb(54.117647%,14.117647%,19.607843%);fill-opacity:1;" d="M 103.71875 70.320312 L 103.71875 69.035156 L 99.851562 69.035156 L 99.851562 71.902344 L 102.976562 71.902344 L 102.976562 74.003906 L 99.851562 74.003906 L 99.851562 77.277344 L 103.71875 77.277344 L 103.71875 75.980469 L 106.109375 75.980469 L 106.109375 79.398438 L 95.652344 79.398438 L 95.652344 77.277344 L 96.613281 77.277344 L 96.613281 69.035156 L 95.652344 69.035156 L 95.652344 66.910156 L 106.109375 66.910156 L 106.109375 70.320312 Z M 103.71875 70.320312 " />
    <path style=" stroke:none;fill-rule:nonzero;fill:rgb(54.117647%,14.117647%,19.607843%);fill-opacity:1;" d="M 106.308594 79.609375 L 95.453125 79.609375 L 95.453125 77.089844 L 96.414062 77.089844 L 96.414062 69.234375 L 95.453125 69.234375 L 95.453125 66.710938 L 106.308594 66.710938 L 106.308594 70.507812 L 103.519531 70.507812 L 103.519531 69.222656 L 100.039062 69.222656 L 100.039062 71.703125 L 103.164062 71.703125 L 103.164062 74.203125 L 100.039062 74.203125 L 100.039062 77.078125 L 103.519531 77.078125 L 103.519531 75.78125 L 106.308594 75.78125 Z M 95.839844 79.210938 L 105.910156 79.210938 L 105.910156 76.179688 L 103.914062 76.179688 L 103.914062 77.476562 L 99.652344 77.476562 L 99.652344 73.804688 L 102.777344 73.804688 L 102.777344 72.089844 L 99.652344 72.089844 L 99.652344 68.824219 L 103.914062 68.824219 L 103.914062 70.113281 L 105.910156 70.113281 L 105.910156 67.097656 L 95.839844 67.097656 L 95.839844 68.824219 L 96.800781 68.824219 L 96.800781 77.464844 L 95.839844 77.464844 Z M 95.839844 79.210938 " />
    <path style=" stroke:none;fill-rule:nonzero;fill:rgb(54.117647%,14.117647%,19.607843%);fill-opacity:1;" d="M 119.1875 70.320312 C 119.1875 71.085938 119.007812 71.722656 118.65625 72.246094 C 118.300781 72.769531 117.757812 73.1875 117.035156 73.511719 L 119.050781 77.289062 L 120.117188 77.289062 L 120.117188 79.410156 L 116.859375 79.410156 L 114.039062 73.949219 L 112.617188 73.949219 L 112.617188 77.289062 L 114.183594 77.289062 L 114.183594 79.410156 L 108.199219 79.410156 L 108.199219 77.289062 L 109.367188 77.289062 L 109.367188 69.035156 L 108.199219 69.035156 L 108.199219 66.910156 L 114.769531 66.910156 C 116.148438 66.910156 117.234375 67.203125 118.007812 67.789062 C 118.800781 68.363281 119.1875 69.210938 119.1875 70.320312 Z M 115.792969 70.457031 C 115.792969 69.984375 115.636719 69.621094 115.332031 69.390625 C 115.03125 69.148438 114.613281 69.035156 114.089844 69.035156 L 112.617188 69.035156 L 112.617188 71.933594 L 113.808594 71.933594 C 115.132812 71.933594 115.792969 71.441406 115.792969 70.457031 Z M 115.792969 70.457031 " />
    <path style=" stroke:none;fill-rule:nonzero;fill:rgb(54.117647%,14.117647%,19.607843%);fill-opacity:1;" d="M 120.316406 79.609375 L 116.742188 79.609375 L 113.921875 74.148438 L 112.816406 74.148438 L 112.816406 77.097656 L 114.382812 77.097656 L 114.382812 79.621094 L 108 79.621094 L 108 77.089844 L 109.167969 77.089844 L 109.167969 69.234375 L 108 69.234375 L 108 66.710938 L 114.769531 66.710938 C 116.1875 66.710938 117.316406 67.015625 118.132812 67.621094 C 118.957031 68.238281 119.386719 69.148438 119.386719 70.3125 C 119.386719 71.117188 119.199219 71.796875 118.820312 72.351562 C 118.476562 72.851562 117.976562 73.269531 117.308594 73.59375 L 119.167969 77.078125 L 120.316406 77.078125 Z M 116.984375 79.210938 L 119.917969 79.210938 L 119.917969 77.484375 L 118.925781 77.484375 L 116.765625 73.425781 L 116.953125 73.34375 C 117.640625 73.03125 118.152344 72.632812 118.488281 72.140625 C 118.820312 71.660156 118.988281 71.042969 118.988281 70.332031 C 118.988281 69.285156 118.632812 68.5 117.890625 67.957031 C 117.148438 67.402344 116.09375 67.121094 114.769531 67.121094 L 108.386719 67.121094 L 108.386719 68.847656 L 109.554688 68.847656 L 109.554688 77.484375 L 108.386719 77.484375 L 108.386719 79.210938 L 113.984375 79.210938 L 113.984375 77.484375 L 112.417969 77.484375 L 112.417969 73.75 L 114.164062 73.75 Z M 113.816406 72.128906 L 112.429688 72.128906 L 112.429688 68.835938 L 114.101562 68.835938 C 114.664062 68.835938 115.125 68.972656 115.457031 69.234375 C 115.8125 69.503906 115.992188 69.921875 115.992188 70.457031 C 115.992188 71.21875 115.613281 72.128906 113.816406 72.128906 Z M 112.816406 71.742188 L 113.808594 71.742188 C 115.40625 71.742188 115.59375 71.011719 115.59375 70.46875 C 115.59375 70.050781 115.46875 69.757812 115.21875 69.558594 C 114.945312 69.347656 114.570312 69.242188 114.101562 69.242188 L 112.816406 69.242188 Z M 112.816406 71.742188 " />
    <path style=" stroke:none;fill-rule:nonzero;fill:rgb(54.117647%,14.117647%,19.607843%);fill-opacity:1;" d="M 131.773438 68.992188 L 130.164062 68.992188 L 130.164062 66.871094 L 135.742188 66.871094 L 135.742188 68.992188 L 134.011719 68.992188 L 134.011719 79.453125 L 131.242188 79.453125 L 125.839844 70.183594 L 125.839844 77.246094 L 127.40625 77.246094 L 127.40625 79.367188 L 121.945312 79.367188 L 121.945312 77.246094 L 123.625 77.246094 L 123.625 68.992188 L 121.945312 68.992188 L 121.945312 66.871094 L 127.1875 66.871094 L 131.785156 74.683594 L 131.785156 68.992188 Z M 131.773438 68.992188 " />
    <path style=" stroke:none;fill-rule:nonzero;fill:rgb(54.117647%,14.117647%,19.607843%);fill-opacity:1;" d="M 134.199219 79.652344 L 131.125 79.652344 L 126.039062 70.90625 L 126.039062 77.046875 L 127.605469 77.046875 L 127.605469 79.566406 L 121.746094 79.566406 L 121.746094 77.046875 L 123.429688 77.046875 L 123.429688 69.191406 L 121.746094 69.191406 L 121.746094 66.671875 L 127.292969 66.671875 L 131.574219 73.960938 L 131.574219 69.191406 L 129.96875 69.191406 L 129.96875 66.671875 L 135.933594 66.671875 L 135.933594 69.191406 L 134.199219 69.191406 Z M 131.355469 79.253906 L 133.8125 79.253906 L 133.8125 68.792969 L 135.546875 68.792969 L 135.546875 67.066406 L 130.363281 67.066406 L 130.363281 68.792969 L 131.972656 68.792969 L 131.972656 75.40625 L 127.0625 67.066406 L 122.132812 67.066406 L 122.132812 68.792969 L 123.816406 68.792969 L 123.816406 77.433594 L 122.132812 77.433594 L 122.132812 79.160156 L 127.210938 79.160156 L 127.210938 77.433594 L 125.644531 77.433594 L 125.644531 69.453125 Z M 131.355469 79.253906 " />
    <path style=" stroke:none;fill-rule:nonzero;fill:rgb(54.117647%,14.117647%,19.607843%);fill-opacity:1;" d="M 54.800781 69.808594 C 54.265625 68.835938 53.523438 68.082031 52.5625 67.539062 C 51.601562 66.996094 50.496094 66.734375 49.242188 66.734375 C 47.988281 66.734375 46.871094 67.003906 45.910156 67.539062 C 44.949219 68.082031 44.195312 68.835938 43.664062 69.796875 C 43.132812 70.761719 42.871094 71.878906 42.871094 73.144531 C 42.871094 74.421875 43.140625 75.539062 43.683594 76.511719 C 44.226562 77.484375 44.992188 78.238281 45.960938 78.773438 C 46.933594 79.304688 48.03125 79.578125 49.253906 79.578125 C 50.496094 79.578125 51.601562 79.304688 52.574219 78.773438 C 53.535156 78.238281 54.289062 77.484375 54.820312 76.511719 C 55.351562 75.539062 55.613281 74.421875 55.613281 73.144531 C 55.59375 71.902344 55.332031 70.78125 54.800781 69.808594 Z M 51.90625 75.277344 C 51.664062 75.917969 51.308594 76.410156 50.839844 76.773438 C 50.371094 77.140625 49.828125 77.320312 49.210938 77.320312 C 48.605469 77.320312 48.082031 77.140625 47.621094 76.773438 C 47.164062 76.410156 46.808594 75.917969 46.558594 75.277344 C 46.304688 74.640625 46.179688 73.929688 46.179688 73.132812 C 46.179688 72.382812 46.304688 71.691406 46.546875 71.0625 C 46.796875 70.445312 47.140625 69.945312 47.601562 69.578125 C 48.0625 69.210938 48.605469 69.023438 49.222656 69.023438 C 49.835938 69.023438 50.378906 69.210938 50.851562 69.578125 C 51.308594 69.945312 51.664062 70.4375 51.90625 71.0625 C 52.144531 71.679688 52.269531 72.371094 52.269531 73.132812 C 52.28125 73.929688 52.15625 74.652344 51.90625 75.277344 Z M 51.90625 75.277344 " />
    <path style=" stroke:none;fill-rule:nonzero;fill:rgb(54.117647%,14.117647%,19.607843%);fill-opacity:1;" d="M 49.242188 79.789062 C 47.988281 79.789062 46.859375 79.503906 45.855469 78.960938 C 44.855469 78.40625 44.070312 77.621094 43.507812 76.617188 C 42.953125 75.625 42.660156 74.453125 42.660156 73.15625 C 42.660156 71.859375 42.933594 70.699219 43.484375 69.714844 C 44.03125 68.71875 44.8125 67.9375 45.804688 67.382812 C 46.796875 66.828125 47.945312 66.546875 49.230469 66.546875 C 50.515625 66.546875 51.664062 66.828125 52.65625 67.382812 C 53.648438 67.9375 54.421875 68.71875 54.964844 69.726562 C 55.507812 70.71875 55.78125 71.878906 55.78125 73.167969 C 55.78125 74.464844 55.507812 75.632812 54.964844 76.628906 C 54.421875 77.632812 53.640625 78.417969 52.648438 78.972656 C 51.65625 79.503906 50.515625 79.789062 49.242188 79.789062 Z M 49.242188 66.933594 C 48.03125 66.933594 46.933594 67.195312 46.003906 67.714844 C 45.074219 68.238281 44.34375 68.972656 43.832031 69.902344 C 43.320312 70.832031 43.058594 71.933594 43.058594 73.15625 C 43.058594 74.390625 43.328125 75.488281 43.851562 76.429688 C 44.375 77.359375 45.117188 78.101562 46.046875 78.617188 C 46.984375 79.128906 48.0625 79.398438 49.242188 79.398438 C 50.453125 79.398438 51.53125 79.136719 52.46875 78.617188 C 53.398438 78.101562 54.128906 77.359375 54.632812 76.429688 C 55.144531 75.488281 55.40625 74.390625 55.40625 73.15625 C 55.40625 71.941406 55.144531 70.84375 54.632812 69.902344 C 54.121094 68.972656 53.398438 68.230469 52.46875 67.714844 C 51.539062 67.195312 50.453125 66.933594 49.242188 66.933594 Z M 49.210938 77.507812 C 48.5625 77.507812 47.988281 77.308594 47.496094 76.921875 C 47.015625 76.535156 46.628906 76.011719 46.371094 75.339844 C 46.109375 74.691406 45.972656 73.941406 45.972656 73.125 C 45.972656 72.351562 46.097656 71.628906 46.359375 70.980469 C 46.621094 70.332031 46.996094 69.796875 47.476562 69.410156 C 47.96875 69.011719 48.550781 68.816406 49.222656 68.816406 C 49.890625 68.816406 50.472656 69.011719 50.964844 69.410156 C 51.457031 69.796875 51.832031 70.332031 52.082031 70.980469 C 52.332031 71.617188 52.460938 72.339844 52.460938 73.125 C 52.460938 73.941406 52.332031 74.683594 52.082031 75.339844 C 51.820312 76 51.445312 76.535156 50.953125 76.921875 C 50.464844 77.320312 49.878906 77.507812 49.210938 77.507812 Z M 49.222656 69.222656 C 48.644531 69.222656 48.144531 69.390625 47.726562 69.734375 C 47.300781 70.082031 46.964844 70.550781 46.722656 71.136719 C 46.484375 71.734375 46.371094 72.402344 46.371094 73.132812 C 46.371094 73.898438 46.496094 74.597656 46.734375 75.207031 C 46.976562 75.800781 47.308594 76.28125 47.738281 76.617188 C 48.15625 76.953125 48.65625 77.121094 49.210938 77.121094 C 49.785156 77.121094 50.296875 76.953125 50.726562 76.617188 C 51.164062 76.28125 51.5 75.800781 51.726562 75.207031 C 51.957031 74.597656 52.082031 73.898438 52.082031 73.132812 C 52.082031 72.402344 51.96875 71.734375 51.726562 71.136719 C 51.5 70.550781 51.164062 70.082031 50.726562 69.734375 C 50.308594 69.402344 49.796875 69.222656 49.222656 69.222656 Z M 49.222656 69.222656 " />
    <path style=" stroke:none;fill-rule:nonzero;fill:rgb(25.098039%,25.098039%,25.490196%);fill-opacity:1;" d="M 37.082031 88.488281 C 37.40625 88.824219 37.898438 89.105469 38.523438 89.105469 C 39.058594 89.105469 39.316406 88.855469 39.316406 88.59375 C 39.316406 88.25 38.921875 88.132812 38.398438 88.019531 C 37.65625 87.851562 36.695312 87.640625 36.695312 86.628906 C 36.695312 85.875 37.355469 85.257812 38.417969 85.257812 C 39.140625 85.257812 39.746094 85.476562 40.195312 85.894531 L 39.652344 86.605469 C 39.285156 86.261719 38.796875 86.105469 38.347656 86.105469 C 37.90625 86.105469 37.679688 86.292969 37.679688 86.566406 C 37.679688 86.867188 38.066406 86.972656 38.585938 87.089844 C 39.339844 87.253906 40.289062 87.484375 40.289062 88.488281 C 40.289062 89.328125 39.695312 89.953125 38.472656 89.953125 C 37.59375 89.953125 36.96875 89.660156 36.539062 89.230469 Z M 37.082031 88.488281 " />
    <path style=" stroke:none;fill-rule:nonzero;fill:rgb(25.098039%,25.098039%,25.490196%);fill-opacity:1;" d="M 44.007812 86.167969 L 42.683594 86.167969 L 42.683594 85.308594 L 46.304688 85.308594 L 46.304688 86.167969 L 44.980469 86.167969 L 44.980469 89.871094 L 44.007812 89.871094 Z M 44.007812 86.167969 " />
    <path style=" stroke:none;fill-rule:nonzero;fill:rgb(25.098039%,25.098039%,25.490196%);fill-opacity:1;" d="M 51.425781 89.085938 L 49.398438 89.085938 L 49.117188 89.871094 L 48.050781 89.871094 L 49.804688 85.320312 L 51.019531 85.320312 L 52.773438 89.871094 L 51.71875 89.871094 Z M 49.660156 88.25 L 51.164062 88.25 L 50.410156 86.15625 Z M 49.660156 88.25 " />
    <path style=" stroke:none;fill-rule:nonzero;fill:rgb(25.098039%,25.098039%,25.490196%);fill-opacity:1;" d="M 55.855469 86.167969 L 54.527344 86.167969 L 54.527344 85.308594 L 58.152344 85.308594 L 58.152344 86.167969 L 56.824219 86.167969 L 56.824219 89.871094 L 55.855469 89.871094 Z M 55.855469 86.167969 " />
    <path style=" stroke:none;fill-rule:nonzero;fill:rgb(25.098039%,25.098039%,25.490196%);fill-opacity:1;" d="M 60.816406 85.320312 L 64.03125 85.320312 L 64.03125 86.15625 L 61.789062 86.15625 L 61.789062 87.152344 L 63.992188 87.152344 L 63.992188 87.988281 L 61.789062 87.988281 L 61.789062 89.042969 L 64.03125 89.042969 L 64.03125 89.878906 L 60.816406 89.878906 Z M 60.816406 85.320312 " />
    <path style=" stroke:none;fill-rule:nonzero;fill:rgb(25.098039%,25.098039%,25.490196%);fill-opacity:1;" d="M 70.625 85.320312 L 71.605469 85.320312 L 71.605469 88.019531 C 71.605469 88.65625 71.949219 89.085938 72.660156 89.085938 C 73.359375 89.085938 73.707031 88.648438 73.707031 88.019531 L 73.707031 85.320312 L 74.6875 85.320312 L 74.6875 88.050781 C 74.6875 89.179688 74.039062 89.953125 72.660156 89.953125 C 71.273438 89.953125 70.625 89.179688 70.625 88.0625 Z M 70.625 85.320312 " />
    <path style=" stroke:none;fill-rule:nonzero;fill:rgb(25.098039%,25.098039%,25.490196%);fill-opacity:1;" d="M 78.605469 86.816406 L 78.605469 89.871094 L 77.632812 89.871094 L 77.632812 85.320312 L 78.625 85.320312 L 80.734375 88.269531 L 80.734375 85.320312 L 81.707031 85.320312 L 81.707031 89.871094 L 80.777344 89.871094 Z M 78.605469 86.816406 " />
    <path style=" stroke:none;fill-rule:nonzero;fill:rgb(25.098039%,25.098039%,25.490196%);fill-opacity:1;" d="M 84.652344 85.320312 L 85.625 85.320312 L 85.625 89.871094 L 84.652344 89.871094 Z M 84.652344 85.320312 " />
    <path style=" stroke:none;fill-rule:nonzero;fill:rgb(25.098039%,25.098039%,25.490196%);fill-opacity:1;" d="M 88.078125 85.320312 L 89.1875 85.320312 L 90.449219 88.824219 L 91.703125 85.320312 L 92.8125 85.320312 L 91.054688 89.871094 L 89.835938 89.871094 Z M 88.078125 85.320312 " />
    <path style=" stroke:none;fill-rule:nonzero;fill:rgb(25.098039%,25.098039%,25.490196%);fill-opacity:1;" d="M 95.265625 85.320312 L 98.484375 85.320312 L 98.484375 86.15625 L 96.238281 86.15625 L 96.238281 87.152344 L 98.441406 87.152344 L 98.441406 87.988281 L 96.238281 87.988281 L 96.238281 89.042969 L 98.484375 89.042969 L 98.484375 89.878906 L 95.265625 89.878906 Z M 95.265625 85.320312 " />
    <path style=" stroke:none;fill-rule:nonzero;fill:rgb(25.098039%,25.098039%,25.490196%);fill-opacity:1;" d="M 102.964844 88.238281 L 102.253906 88.238281 L 102.253906 89.871094 L 101.28125 89.871094 L 101.28125 85.320312 L 103.414062 85.320312 C 104.363281 85.320312 104.9375 85.9375 104.9375 86.785156 C 104.9375 87.589844 104.4375 88.019531 103.945312 88.132812 L 104.96875 89.871094 L 103.863281 89.871094 Z M 103.277344 86.148438 L 102.265625 86.148438 L 102.265625 87.402344 L 103.277344 87.402344 C 103.664062 87.402344 103.957031 87.160156 103.957031 86.773438 C 103.957031 86.398438 103.664062 86.148438 103.277344 86.148438 Z M 103.277344 86.148438 " />
    <path style=" stroke:none;fill-rule:nonzero;fill:rgb(25.098039%,25.098039%,25.490196%);fill-opacity:1;" d="M 107.9375 88.488281 C 108.261719 88.824219 108.75 89.105469 109.378906 89.105469 C 109.910156 89.105469 110.171875 88.855469 110.171875 88.59375 C 110.171875 88.25 109.777344 88.132812 109.253906 88.019531 C 108.511719 87.851562 107.550781 87.640625 107.550781 86.628906 C 107.550781 85.875 108.207031 85.257812 109.273438 85.257812 C 109.996094 85.257812 110.601562 85.476562 111.050781 85.894531 L 110.507812 86.605469 C 110.140625 86.261719 109.648438 86.105469 109.199219 86.105469 C 108.761719 86.105469 108.53125 86.292969 108.53125 86.566406 C 108.53125 86.867188 108.917969 86.972656 109.441406 87.089844 C 110.195312 87.253906 111.144531 87.484375 111.144531 88.488281 C 111.144531 89.328125 110.546875 89.953125 109.328125 89.953125 C 108.449219 89.953125 107.820312 89.660156 107.394531 89.230469 Z M 107.9375 88.488281 " />
    <path style=" stroke:none;fill-rule:nonzero;fill:rgb(25.098039%,25.098039%,25.490196%);fill-opacity:1;" d="M 113.847656 85.320312 L 114.820312 85.320312 L 114.820312 89.871094 L 113.847656 89.871094 Z M 113.847656 85.320312 " />
    <path style=" stroke:none;fill-rule:nonzero;fill:rgb(25.098039%,25.098039%,25.490196%);fill-opacity:1;" d="M 118.8125 86.167969 L 117.484375 86.167969 L 117.484375 85.308594 L 121.109375 85.308594 L 121.109375 86.167969 L 119.78125 86.167969 L 119.78125 89.871094 L 118.8125 89.871094 Z M 118.8125 86.167969 " />
    <path style=" stroke:none;fill-rule:nonzero;fill:rgb(25.098039%,25.098039%,25.490196%);fill-opacity:1;" d="M 125.046875 88.007812 L 123.292969 85.320312 L 124.398438 85.320312 L 125.527344 87.152344 L 126.644531 85.320312 L 127.753906 85.320312 L 126.019531 88.007812 L 126.019531 89.871094 L 125.046875 89.871094 Z M 125.046875 88.007812 " />
    <path style=" stroke:none;fill-rule:nonzero;fill:rgb(54.117647%,14.117647%,19.607843%);fill-opacity:1;" d="M 104.375 54.117188 L 89.082031 54.117188 L 74.03125 28.230469 L 74.03125 39.640625 L 79.867188 39.640625 L 79.867188 53.792969 L 53.273438 53.792969 L 53.273438 39.640625 L 59.480469 39.640625 L 59.480469 15.199219 L 53.273438 15.199219 L 53.273438 1.046875 L 77.695312 1.046875 L 83.777344 11.371094 L 83.777344 1.046875 L 110.871094 1.046875 L 110.871094 15.199219 L 104.375 15.199219 Z M 92.695312 47.820312 L 98.078125 47.820312 L 98.078125 8.890625 L 104.574219 8.890625 L 104.574219 7.34375 L 90.074219 7.34375 L 90.074219 8.890625 L 96.101562 8.890625 L 96.101562 44.695312 L 74.101562 7.34375 L 69.183594 7.34375 Z M 59.5625 47.488281 L 73.570312 47.488281 L 73.570312 45.9375 L 67.730469 45.9375 L 67.730469 7.34375 L 59.550781 7.34375 L 59.550781 8.890625 L 65.757812 8.890625 L 65.757812 45.9375 L 59.550781 45.9375 L 59.550781 47.488281 Z M 86.03125 15.199219 L 89.8125 21.621094 L 89.8125 15.199219 Z M 86.03125 15.199219 " />
    <path style=" stroke:none;fill-rule:nonzero;fill:rgb(100%,100%,100%);fill-opacity:1;" d="M 102.796875 52.550781 L 89.992188 52.550781 L 72.464844 22.382812 L 72.464844 41.210938 L 78.300781 41.210938 L 78.300781 52.203125 L 54.839844 52.203125 L 54.839844 41.210938 L 61.046875 41.210938 L 61.046875 13.617188 L 54.839844 13.617188 L 54.839844 2.625 L 76.796875 2.625 L 91.390625 27.382812 L 91.390625 13.617188 L 85.351562 13.617188 L 85.351562 2.625 L 109.304688 2.625 L 109.304688 13.617188 L 102.808594 13.617188 L 102.808594 52.550781 Z M 91.796875 49.390625 L 99.652344 49.390625 L 99.652344 10.46875 L 106.152344 10.46875 L 106.152344 5.773438 L 88.496094 5.773438 L 88.496094 10.46875 L 94.535156 10.46875 L 94.535156 38.929688 L 75 5.773438 L 57.984375 5.773438 L 57.984375 10.46875 L 64.191406 10.46875 L 64.191406 44.371094 L 57.984375 44.371094 L 57.984375 49.066406 L 75.148438 49.066406 L 75.148438 44.371094 L 69.308594 44.371094 L 69.308594 10.710938 Z M 91.796875 49.390625 " />
    <path style=" stroke:none;fill-rule:nonzero;fill:rgb(99.215686%,84.313725%,33.72549%);fill-opacity:1;" d="M 102.015625 51.753906 L 90.441406 51.753906 L 90.210938 51.367188 L 71.667969 19.464844 L 71.667969 41.996094 L 77.507812 41.996094 L 77.507812 51.421875 L 55.625 51.421875 L 55.625 41.996094 L 61.828125 41.996094 L 61.828125 12.835938 L 55.625 12.835938 L 55.625 3.410156 L 76.339844 3.410156 L 92.164062 30.269531 L 92.164062 12.835938 L 86.125 12.835938 L 86.125 3.410156 L 108.5 3.410156 L 108.5 12.835938 L 102.003906 12.835938 L 102.003906 51.753906 Z M 91.339844 50.1875 L 100.4375 50.1875 L 100.4375 11.253906 L 106.933594 11.253906 L 106.933594 4.988281 L 87.714844 4.988281 L 87.714844 11.253906 L 93.75 11.253906 L 93.75 36.042969 L 75.449219 4.988281 L 57.203125 4.988281 L 57.203125 11.253906 L 63.40625 11.253906 L 63.40625 43.574219 L 57.203125 43.574219 L 57.203125 49.851562 L 75.929688 49.851562 L 75.929688 43.574219 L 70.089844 43.574219 L 70.089844 13.628906 Z M 91.339844 50.1875 " />
    <path style=" stroke:none;fill-rule:nonzero;fill:rgb(54.117647%,14.117647%,19.607843%);fill-opacity:1;" d="M 86.921875 12.039062 L 92.957031 12.039062 L 92.957031 33.15625 L 75.898438 4.195312 L 56.417969 4.195312 L 56.417969 12.039062 L 62.613281 12.039062 L 62.613281 42.789062 L 56.417969 42.789062 L 56.417969 50.636719 L 76.726562 50.636719 L 76.726562 42.789062 L 70.886719 42.789062 L 70.886719 16.546875 L 90.890625 50.96875 L 101.230469 50.96875 L 101.230469 12.039062 L 107.726562 12.039062 L 107.726562 4.195312 L 86.921875 4.195312 Z M 86.921875 12.039062 " />
  </g>
</svg>